<svg width="98" height="98" viewBox="0 0 98 98" fill="none" xmlns="http://www.w3.org/2000/svg">
<circle cx="49" cy="49" r="49" fill="#F0F3FF"/>
<path d="M38.5204 69.9673L37.5493 66.8643L36.5782 69.9673H33.4407L35.9806 71.7515L35.0094 74.9321L37.5493 72.9151L40.0892 74.9321L39.118 71.8291L41.5085 69.9673H38.5204Z" fill="#2F5BEA"/>
<path d="M50.0459 73.3472L49.0747 70.3218L48.1036 73.3472L44.9661 73.4248L47.506 75.209L46.5349 78.312L49.0747 76.3726L51.6146 78.3896L50.6435 75.2866L53.0339 73.3472H50.0459Z" fill="#2F5BEA"/>
<path d="M71.8878 60.6695L70.8983 57.644L69.9089 60.6695H66.8644L69.3 62.5313L68.3105 65.6343L70.8983 63.6949L73.4861 65.7118L72.4966 62.6088L74.9322 60.6695H71.8878Z" fill="#2F5BEA"/>
<path d="M62.6959 69.9673L61.7911 66.8643L60.7355 69.9673H57.6441L60.1323 71.7515L59.1521 74.9321L61.7911 72.9151L64.3547 74.9321L63.2991 71.8291L65.7119 69.9673H62.6959Z" fill="#2F5BEA"/>
<path d="M28.1196 60.6695L27.2148 57.644L26.1592 60.6695H23.0678L25.556 62.5313L24.5758 65.5567L27.2148 63.6949L29.7784 65.7118L28.7228 62.6088L31.1356 60.6695H28.1196Z" fill="#2F5BEA"/>
<path d="M24.9097 52.1695L27.4733 54.1864L26.4177 51.0834L28.8305 49.0665H25.8145L24.9097 46.1187L23.8541 49.1441L20.7627 49.2217L23.2509 51.0059L22.2707 54.0313L24.9097 52.1695Z" fill="#2F5BEA"/>
<path d="M37.5493 24.2202L36.5782 27.275H33.4407L35.9806 29.1549L35.0094 32.288L37.5493 30.2515L40.0892 32.288L39.118 29.1549L41.5085 27.275H38.5204L37.5493 24.2202Z" fill="#2F5BEA"/>
<path d="M27.2148 33.4404L26.1592 36.4952H23.0678L25.556 38.3751L24.5758 41.5082L27.2148 39.4717L29.7784 41.5082L28.7228 38.3751L31.1356 36.4952H28.1196L27.2148 33.4404Z" fill="#2F5BEA"/>
<path d="M49.0747 20.7627L48.1036 23.7881L44.9661 23.8657L47.506 25.6499L46.5349 28.7529L49.0747 26.8135L51.6146 28.8305L50.6435 25.7275L53.0339 23.7105H50.0459L49.0747 20.7627Z" fill="#2F5BEA"/>
<path d="M61.7911 24.2202L60.7355 27.275H57.6441L60.1323 29.1549L59.1521 32.288L61.7911 30.2515L64.3547 32.288L63.2991 29.1549L65.7119 27.275H62.6959L61.7911 24.2202Z" fill="#2F5BEA"/>
<path d="M78.3899 49.0665H75.3739L74.4691 46.1187L73.4135 49.1441L70.3221 49.2217L72.8103 51.0059L71.8301 54.0313L74.4691 52.1695L76.9573 54.1864L75.9771 51.0834L78.3899 49.0665Z" fill="#2F5BEA"/>
<path d="M68.3105 41.5082L70.8983 39.4717L73.4861 41.5082L72.4966 38.3751L74.9322 36.4952H71.8878L70.8983 33.4404L69.9089 36.4952H66.8644L69.3 38.3751L68.3105 41.5082Z" fill="#2F5BEA"/>
</svg>
