<svg width="98" height="98" viewBox="0 0 98 98" fill="none" xmlns="http://www.w3.org/2000/svg">
<circle cx="49" cy="49" r="49" fill="#C23038"/>
<path fill-rule="evenodd" clip-rule="evenodd" d="M62.0316 22.5474L63.3694 21.2036L79.5085 37.1439L78.1707 38.4877L76.3421 36.6834L73.676 39.3409L74.4549 44.208L67.9765 51.2138C66.7142 52.5738 65.009 53.4444 63.1636 53.671V68.3732L58.6357 73.723V74.9043H60.3772V76.7968H38.4816V74.9043H40.1978V72.3429L35.5654 69.5041V58.2337L24.1458 46.2252L24.9865 39.3598L22.6117 36.9941L21.1758 38.3946L19.8475 37.0383L34.9052 22.3534L36.2351 23.705L34.8989 25.0077L35.6794 25.7853L40.2802 24.9525L47.9206 31.81L55.4915 24.1608L61.6026 25.1938L63.1525 23.6514L62.0316 22.5474ZM26.1423 45.5691L35.6794 55.5967C36.1415 53.3528 37.9343 51.6187 40.1995 51.2248V38.8189C40.199 37.418 40.9878 36.1353 42.2409 35.4995C43.494 34.8637 44.9993 34.9823 46.1364 35.8065C46.4661 35.1078 47.0011 34.5254 47.6705 34.1363L39.7102 26.9823L35.0462 27.8277L33.5405 26.3325L23.9638 35.6661L26.9861 38.6722L26.1423 45.5691ZM61.2607 67.684L56.7359 73.0322V74.8964H42.0993V71.2689L37.4669 68.43V56.7007C37.4691 55.0396 38.5892 53.5864 40.1994 53.1552V59.743H42.0993V38.8157C42.1285 37.8241 42.9439 37.0353 43.9397 37.0353C44.9356 37.0353 45.751 37.8241 45.7802 38.8157V55.4421H47.68V37.3994C47.7607 36.4173 48.5844 35.6613 49.5735 35.6613C50.5627 35.6613 51.3863 36.4173 51.467 37.3994V55.2324H53.3669V40.967C53.348 40.356 53.6645 39.7833 54.1927 39.4723C54.7209 39.1613 55.3771 39.1613 55.9053 39.4723C56.4335 39.7833 56.75 40.356 56.7311 40.967V55.2324H58.631V45.9744C60.1822 46.4022 61.257 47.8076 61.2591 49.4111L61.2607 67.684ZM72.4316 43.5977L71.6558 38.6864L74.9995 35.357L64.5014 24.9888L62.2533 27.2252L56.15 26.1953L49.3265 33.078L49.9598 33.6411C51.8952 33.8389 53.3679 35.4613 53.3715 37.3994V37.8174C53.8885 37.5411 54.4662 37.3969 55.0529 37.3979C57.0309 37.3996 58.6339 38.9965 58.6357 40.967V44.0377C61.2506 44.5014 63.1562 46.7651 63.1588 49.4111V51.761C64.4703 51.5482 65.6725 50.9041 66.5738 49.9315L72.4316 43.5977Z" fill="white"/>
</svg>
