<svg width="1440" height="541" viewBox="0 0 1440 541" fill="none" xmlns="http://www.w3.org/2000/svg">
<rect x="-240" y="-219" width="1920" height="760" fill="#2F5BEA"/>
<mask id="mask0" mask-type="alpha" maskUnits="userSpaceOnUse" x="-240" y="-219" width="1920" height="760">
<rect x="-240" y="-219" width="1920" height="760" fill="white"/>
</mask>
<g mask="url(#mask0)">
<path d="M411 222V245L390 233.487L411 222Z" fill="#223F78"/>
<path d="M1281 234V195L1316 214.522L1281 234Z" fill="#5EBAAA"/>
<path d="M185 202V214L174 207.993L185 202Z" fill="white"/>
<path d="M1070 119V153L1039 135.98L1070 119Z" fill="white"/>
<path d="M81 193V236L43 214.475L81 193Z" fill="#C13038"/>
<path d="M400 64.5271L358 88V41L400 64.5271Z" fill="#FCB62E"/>
<path d="M297 146H276L286.512 127L297 146Z" fill="#5EBAAA"/>
<path d="M1147 235.513L1127 247V224L1147 235.513Z" fill="#FCB62E"/>
<path d="M136 80H174L154.989 113L136 80Z" fill="#223F78"/>
<path d="M1160 52H1221L1190.48 102L1160 52Z" fill="#223F78"/>
<path d="M1359 111L1329 93.9804L1359 77V111Z" fill="#C13038"/>
<path d="M106.518 442.315H60.3237V459.958L38.0527 442.326L3.67633 442.315V541.359H138.009L134.002 468.267C133.206 453.71 121.137 442.314 106.518 442.315Z" fill="#223F78"/>
<path d="M3.30925 442.369H49.5423V460.021L71.8318 442.379L106.237 442.369V541.47H-28.2077L-24.1976 468.336C-23.401 453.77 -11.3216 442.367 3.30925 442.369Z" fill="#223F78"/>
<path d="M51.9966 373.279C55.5783 367.2 73.6778 363.628 80.6657 373.279C88.8706 384.604 79.1353 394.36 79.1353 394.36V385.664H59.4735L50.9179 392.982V403.295H47.7826C47.7826 401.233 46.9606 399.254 45.4975 397.796C44.0343 396.338 42.0501 395.519 39.9817 395.521C38.5899 395.548 37.2285 395.931 36.028 396.634C34.7208 391.016 33.9024 383.152 37.8561 378.281C42.6918 372.309 51.9966 373.279 51.9966 373.279Z" fill="#5EBAAA"/>
<path d="M36.028 396.634C37.2284 395.931 38.5899 395.548 39.9816 395.521C42.0501 395.519 44.0343 396.338 45.4974 397.796C46.9605 399.254 47.7826 401.232 47.7826 403.295H50.9178V392.982L59.4734 385.664H79.1352V417.36C79.1373 419.734 78.0522 421.978 76.1888 423.454C74.3254 424.931 71.8878 425.477 69.57 424.938L60.3343 422.527V459.968L38.0526 442.326V410.799C34.9983 410.035 32.7113 407.504 32.267 404.395C31.8226 401.286 33.3093 398.218 36.028 396.634Z" fill="#F6D0BA"/>
<path fill-rule="evenodd" clip-rule="evenodd" d="M60.2493 409.464C60.2522 413.771 63.7527 417.262 68.0715 417.265C72.3883 417.259 75.8855 413.769 75.8884 409.464V408.669H60.2493V409.464ZM68.0715 415.665C64.9428 415.665 62.2989 413.352 61.8913 410.259H74.2517C73.844 413.352 71.2001 415.665 68.0715 415.665Z" fill="#2C2D3C"/>
<rect width="61.7786" height="1.59534" transform="matrix(0.259561 -0.965727 0.96608 0.258244 106.325 541.394)" fill="#2C2D3C"/>
<rect width="61.7786" height="1.59534" transform="matrix(0.259561 -0.965727 0.96608 0.258244 0.487923 541.394)" fill="#2C2D3C"/>
<path d="M213.16 312C208.397 312.006 203.712 313.211 199.54 315.503C199.035 315.761 198.547 316.052 198.079 316.372C197.033 317.038 196.036 317.778 195.098 318.587L195.055 318.614C194.614 318.975 194.197 319.365 193.806 319.78C192.707 320.865 191.714 322.052 190.841 323.325C187.164 328.132 182.955 334.703 180.962 336.701C178.098 339.574 173.523 339.409 169.495 339.976C159.87 341.46 151.782 347.975 148.302 357.046C146.474 361.991 145.869 367.878 141.745 371.175C138.307 373.92 133.482 373.946 129.374 375.536C120.797 378.848 116.333 389.373 118.459 398.271C119.651 402.908 122.183 407.093 125.739 410.306L131.08 401.191C137.388 390.423 148.954 383.803 161.46 383.803H206.385H198.414V351.413C195.468 350.587 193.28 348.119 192.819 345.103C192.359 342.087 193.711 339.081 196.276 337.419C198.841 335.756 202.145 335.745 204.721 337.39C210.142 333.5 211.815 326.621 211.815 326.621C213.938 326.618 216.059 326.767 218.16 327.067C234.102 329.372 239.666 339.876 239.666 339.876C244.874 317.628 226.333 312 213.16 312Z" fill="#2C2D3C"/>
<path d="M218.16 327.067C216.059 326.767 213.938 326.619 211.816 326.622C211.816 326.622 210.142 333.511 204.721 337.39C202.145 335.745 198.841 335.757 196.276 337.419C193.711 339.081 192.359 342.087 192.819 345.103C193.28 348.119 195.468 350.588 198.414 351.413V383.793H220.876V363.485L230.112 365.897C232.429 366.435 234.867 365.889 236.73 364.412C238.594 362.936 239.679 360.692 239.677 358.318V339.876C239.677 339.876 234.102 329.372 218.16 327.067Z" fill="#F6D0BA"/>
<path d="M282.391 413.852C279.877 396.609 265.06 383.817 247.589 383.803H161.502C148.997 383.803 137.431 390.423 131.122 401.191L125.782 410.306L100.976 452.581C95.8222 461.372 97.1223 472.504 104.164 479.879L144.375 521.994L158.527 504.903L132.839 463.196L148.882 437.228L158.527 504.903H260.874L264.499 479.317L277.879 467.425L278.001 457.244L288.38 455.013L282.391 413.852Z" fill="#FCB62E"/>
<path d="M158.527 504.919L151.533 541.359H261.294L260.858 504.919H158.527Z" fill="#2C2D3C"/>
<path d="M229.708 359.017C227.466 359.024 225.314 358.135 223.735 356.548L224.861 355.456C226.146 356.739 227.89 357.46 229.708 357.46C231.526 357.46 233.269 356.739 234.554 355.456L235.681 356.574C234.097 358.152 231.946 359.032 229.708 359.017Z" fill="#2C2D3C"/>
<rect x="208.85" y="383.788" width="1.58887" height="121.132" fill="#2C2D3C"/>
<rect width="69.6186" height="1.5888" transform="matrix(0.14353 -0.989646 0.989757 0.142765 263.45 479.46)" fill="#2C2D3C"/>
<rect width="1.58857" height="26.8184" transform="matrix(0.990201 -0.139647 0.140396 0.990095 144.246 410.854)" fill="#2C2D3C"/>
<path d="M158.527 504.919H171.429L175.659 520.309L153.361 531.814L144.37 521.994L158.527 504.919Z" fill="#F6D0BA"/>
<path d="M278.012 457.244L300.102 452.485L305.741 467.425H277.89L278.012 457.244Z" fill="#F6D0BA"/>
<path d="M209.775 384.036L209.642 383.803H231.568C229.4 387.758 225.259 390.237 220.74 390.285C216.22 390.333 212.027 387.944 209.775 384.036Z" fill="white"/>
<path d="M187.722 383.803H209.642L209.514 384.036C207.262 387.944 203.069 390.333 198.55 390.285C194.03 390.237 189.89 387.758 187.722 383.803Z" fill="white"/>
<path d="M344.087 467.425C344.087 474.129 334.112 479.561 321.815 479.561C309.519 479.561 299.544 474.129 299.544 467.425H278.666C260.614 467.424 244.646 479.093 239.209 496.26L224.93 541.359H372.91V467.425H344.087Z" fill="#5EBAAA"/>
<path d="M312.707 419.22C315.476 419.226 318.031 420.702 319.414 423.094L326.556 411.382C329.394 418.694 336.442 423.517 344.304 423.529H351.818C351.818 423.529 360.22 410.37 347.323 399.294C334.426 388.218 316.501 395.001 312.558 402.15C312.558 402.15 305.82 401.228 304.89 410.264C304.474 414.088 305.459 417.934 307.664 421.091C309.077 419.918 310.848 419.258 312.686 419.22H312.707Z" fill="#C13038"/>
<path d="M344.304 423.529C336.435 423.527 329.375 418.701 326.534 411.382L319.392 423.094C318.01 420.702 315.454 419.226 312.686 419.22C310.848 419.259 309.077 419.918 307.664 421.091C305.466 422.933 304.473 425.837 305.086 428.634C305.698 431.431 307.814 433.659 310.582 434.419V467.409H299.544C299.544 474.113 309.514 479.545 321.815 479.545C334.117 479.545 344.086 474.113 344.086 467.409H333.049V447.138L342.285 449.55C344.603 450.086 347.039 449.539 348.902 448.063C350.765 446.587 351.85 444.344 351.85 441.971V423.529H344.304Z" fill="#F6D0BA"/>
<path d="M322.145 528.751L340.701 520.309L358.2 528.751V541.359H322.145V528.751Z" fill="#F6D0BA"/>
<rect width="1.58458" height="69.7403" transform="matrix(0.0647077 -0.997904 0.997927 0.0643574 252.492 525.044)" fill="#2C2D3C"/>
<path fill-rule="evenodd" clip-rule="evenodd" d="M332.353 436.094C332.356 440.399 335.853 443.889 340.17 443.895C344.489 443.892 347.989 440.401 347.992 436.094V435.299H332.353V436.094ZM340.17 442.295C337.041 442.295 334.397 439.982 333.99 436.889H346.35C345.943 439.982 343.299 442.295 340.17 442.295Z" fill="#2C2D3C"/>
<path d="M1238.97 407.603H1127.44C1111.87 407.603 1098.98 420.855 1098 437.868L1092 543.336H1274.41L1268.4 437.88C1267.44 420.861 1254.54 407.601 1238.97 407.603Z" fill="#C13038"/>
<path d="M1192.19 336.166C1188.16 329.694 1176.87 329.397 1169.09 329.694C1161.31 329.991 1162.37 322.628 1162.37 322.628C1145.16 327.924 1152.9 344.826 1152.9 344.826H1177.6L1186.11 352.876V359.394C1187.48 357.066 1189.84 355.66 1192.37 355.664C1192.9 355.666 1193.44 355.73 1193.96 355.856H1194C1195.2 356.151 1196.31 356.765 1197.23 357.642C1206.04 336.666 1192.19 336.166 1192.19 336.166Z" fill="#223F78"/>
<path d="M1193.99 355.867H1193.96C1193.43 355.742 1192.9 355.677 1192.36 355.675C1189.84 355.671 1187.48 357.072 1186.11 359.394V352.876L1177.6 344.826H1152.88V379.643C1152.88 382.249 1153.96 384.712 1155.83 386.333C1157.69 387.954 1160.13 388.555 1162.45 387.966L1171.69 385.317V407.603L1183.2 420.029L1194.15 407.615L1194.04 371.797C1197.47 370.981 1199.92 367.651 1199.9 363.808C1199.89 359.965 1197.43 356.653 1193.99 355.861V355.867Z" fill="#F6D0BA"/>
<path d="M1163.78 379.555C1161.49 379.559 1159.3 378.566 1157.68 376.796L1158.81 375.568C1161.55 378.563 1165.99 378.563 1168.74 375.568L1169.86 376.796C1168.25 378.566 1166.06 379.558 1163.78 379.555Z" fill="#2C2D3C"/>
<path d="M1171.68 407.603L1159.8 417.713L1183.2 420.035L1171.68 407.603Z" fill="white"/>
<path d="M1194.15 407.621L1206.61 417.713L1183.2 420.035L1194.15 407.621Z" fill="white"/>
<path fill-rule="evenodd" clip-rule="evenodd" d="M1204.1 472.411L1217.82 481.142L1231.55 472.411V450.091H1204.1V472.411ZM1217.82 479.128L1205.69 471.399V451.831H1229.96V471.399L1217.82 479.128Z" fill="#2C2D3C"/>
<rect width="82.4495" height="1.59542" transform="matrix(0.174986 -0.984571 0.978061 0.208316 1241.8 543.178)" fill="#2C2D3C"/>
<rect width="1.59541" height="82.45" transform="matrix(0.978101 -0.208131 0.174828 0.984599 1108.63 462.324)" fill="#2C2D3C"/>
<path d="M1311.63 372.769H1273.65C1260.72 372.768 1249.83 383.361 1248.31 397.423L1243.26 443.816H1275.9L1297.62 505.779H1399.98L1390.09 397.912C1388.79 383.616 1377.79 372.732 1364.67 372.746H1334.31L1313.74 390.008L1311.63 372.769Z" fill="#223F78"/>
<path d="M1334.74 329.385C1334.27 325.604 1331.57 322.619 1328.12 322.075C1327.42 321.966 1326.7 321.966 1326 322.075C1324.53 322.288 1323.14 322.961 1322.01 324.013C1316.12 320.562 1313.54 313.315 1313.54 313.315C1304.36 329.35 1287.65 331.766 1287.65 331.766L1290.1 351.845C1290.41 354.426 1291.79 356.708 1293.83 358.044C1295.87 359.38 1298.36 359.624 1300.58 358.707L1309.45 354.744L1311.65 372.786L1313.78 390.049L1334.35 372.786L1330.14 338.36C1333.34 336.829 1335.21 333.164 1334.74 329.385Z" fill="#F6D0BA"/>
<path d="M1403.51 305.953C1398.45 301.908 1391.81 300.668 1385.61 301.593C1381.67 302.175 1377.87 303.578 1373.91 304.183C1369.95 304.789 1365.72 304.521 1362.44 302.071C1360.09 300.325 1358.49 297.642 1356.73 295.203C1353.61 290.884 1349.56 287.014 1344.63 285.89C1339.31 284.692 1333.61 287.055 1329.7 291.175C1328.11 292.881 1325.55 296.198 1324.33 299.475C1319.85 297.535 1314.99 296.88 1310.22 297.572C1297.19 299.487 1279.55 308.281 1287.65 331.766C1287.65 331.766 1304.35 329.35 1313.51 313.298C1313.51 313.298 1316.09 320.544 1321.98 323.996C1323.11 322.944 1324.49 322.271 1325.97 322.057C1326.67 321.949 1327.39 321.949 1328.09 322.057C1331.56 322.579 1334.29 325.576 1334.75 329.379C1335.22 333.182 1333.3 336.855 1330.08 338.354L1331.5 349.994C1331.5 349.994 1342.19 339.518 1340.01 321.726C1339.12 314.474 1336.18 308.811 1332.12 304.765C1332.82 304.618 1333.54 304.6 1334.25 304.713C1337.91 305.446 1341.16 307.728 1343.98 310.405C1353.28 319.269 1360.06 330.561 1371.16 337.178C1383.25 344.413 1406.25 343.493 1410.28 325.712C1411.99 318.286 1409.11 310.417 1403.51 305.953Z" fill="#FCB62E"/>
<path d="M1297.6 505.779L1295.7 543.337H1409.77L1399.98 505.779H1297.6Z" fill="#5EBAAA"/>
<path fill-rule="evenodd" clip-rule="evenodd" d="M1292.97 344.366C1293.47 348.361 1296.58 351.341 1300.26 351.35C1300.59 351.355 1300.92 351.333 1301.24 351.286C1303.18 351.006 1304.93 349.894 1306.12 348.196C1307.3 346.498 1307.82 344.354 1307.56 342.236L1307.46 341.369L1292.87 343.505L1292.97 344.366ZM1301.03 349.564C1298.18 349.983 1295.47 348.026 1294.71 344.983L1306.04 343.324C1306.03 346.481 1303.89 349.146 1301.03 349.564Z" fill="#2C2D3C"/>
<path d="M1233.92 529.49L1210.58 533.943V543.336H1258.58L1260.8 533.943L1275.88 443.816H1243.24L1233.92 529.49Z" fill="#F6D0BA"/>
<path d="M1383.33 443.816H1352.73L1350.73 530.078L1330.48 533.943V543.336H1378.48L1377.98 529.49L1383.33 443.816Z" fill="#F6D0BA"/>
<path d="M544.674 263.58H542.622L540.102 274.416L537.6 263.76H534.882L532.308 274.362L529.932 263.58H527.754L530.958 276H533.586L536.196 265.416L538.68 276H541.29L544.674 263.58ZM553.752 270.978C553.752 268.278 552.258 266.19 549.486 266.19C546.732 266.19 544.806 268.224 544.806 271.248C544.806 274.632 546.732 276.252 549.288 276.252C551.376 276.252 553.194 275.172 553.608 272.904H551.61C551.412 274.11 550.512 274.812 549.36 274.812C548.064 274.812 547.02 274.056 546.858 271.77H553.716C553.752 271.428 553.752 271.158 553.752 270.978ZM549.414 267.63C550.8 267.63 551.574 268.62 551.718 270.384H546.876C547.092 268.548 548.064 267.63 549.414 267.63ZM564.851 276H566.813C566.669 274.938 566.633 274.29 566.633 273.57V270.204C566.633 269.754 566.615 269.25 566.579 268.854C566.417 267.234 565.445 266.19 562.979 266.19C560.801 266.19 559.235 267.378 559.109 269.466H561.089C561.197 268.278 561.791 267.63 562.943 267.63C564.077 267.63 564.563 268.17 564.617 268.944C564.653 269.304 564.653 269.628 564.653 269.988V270.222H564.041C560.423 270.222 558.731 271.374 558.731 273.498C558.731 275.28 560.117 276.252 561.809 276.252C562.709 276.252 563.537 276.09 564.185 275.64L564.671 274.614L564.851 276ZM562.529 274.812C561.485 274.812 560.819 274.344 560.819 273.336C560.819 271.878 562.331 271.356 564.653 271.536V272.418C564.653 273.966 563.771 274.812 562.529 274.812ZM571.059 262.77H569.079V273.138C569.079 273.714 569.079 274.146 569.097 274.506C569.169 275.73 569.871 276.108 570.915 276.108C571.365 276.108 571.815 276.072 572.211 276.018V274.632C571.365 274.704 571.113 274.524 571.077 273.984C571.059 273.696 571.059 273.408 571.059 273.084V262.77ZM575.77 262.77H573.79V273.138C573.79 273.714 573.79 274.146 573.808 274.506C573.88 275.73 574.582 276.108 575.626 276.108C576.076 276.108 576.526 276.072 576.922 276.018V274.632C576.076 274.704 575.824 274.524 575.788 273.984C575.77 273.696 575.77 273.408 575.77 273.084V262.77ZM595.494 266.442H593.388L591.426 274.254L589.518 266.46H587.106L585.252 274.236L583.29 266.442H581.058L584.1 276H586.386L588.294 268.278L590.184 276H592.452L595.494 266.442ZM597.774 263.112C597.108 263.112 596.622 263.598 596.622 264.246C596.622 264.912 597.108 265.398 597.774 265.398C598.44 265.398 598.944 264.912 598.944 264.246C598.944 263.598 598.44 263.112 597.774 263.112ZM598.764 276V266.442H596.784V276H598.764ZM603.21 262.77H601.23V273.138C601.23 273.714 601.23 274.146 601.248 274.506C601.32 275.73 602.022 276.108 603.066 276.108C603.516 276.108 603.966 276.072 604.362 276.018V274.632C603.516 274.704 603.264 274.524 603.228 273.984C603.21 273.696 603.21 273.408 603.21 273.084V262.77ZM607.921 262.77H605.941V273.138C605.941 273.714 605.941 274.146 605.959 274.506C606.031 275.73 606.733 276.108 607.777 276.108C608.227 276.108 608.677 276.072 609.073 276.018V274.632C608.227 274.704 607.975 274.524 607.939 273.984C607.921 273.696 607.921 273.408 607.921 273.084V262.77ZM627.824 268.53C627.608 267.216 626.6 266.19 624.836 266.19C623.99 266.19 623.324 266.352 622.802 266.748L621.92 268.008C621.56 266.946 620.606 266.19 619.094 266.19C618.23 266.19 617.564 266.352 617.06 266.748L616.412 267.864V266.442H614.432V276H616.412V271.194C616.412 268.602 617.168 267.648 618.338 267.648C619.364 267.648 619.976 268.188 620.12 269.214C620.174 269.7 620.192 270.222 620.192 270.942V276H622.154V271.194C622.154 268.602 622.928 267.648 624.08 267.648C625.106 267.648 625.736 268.188 625.862 269.214C625.916 269.7 625.934 270.222 625.934 270.942V276H627.914V270.222C627.914 269.448 627.896 269.016 627.824 268.53ZM638.549 270.978C638.549 268.278 637.055 266.19 634.283 266.19C631.529 266.19 629.603 268.224 629.603 271.248C629.603 274.632 631.529 276.252 634.085 276.252C636.173 276.252 637.991 275.172 638.405 272.904H636.407C636.209 274.11 635.309 274.812 634.157 274.812C632.861 274.812 631.817 274.056 631.655 271.77H638.513C638.549 271.428 638.549 271.158 638.549 270.978ZM634.211 267.63C635.597 267.63 636.371 268.62 636.515 270.384H631.673C631.889 268.548 632.861 267.63 634.211 267.63ZM648.656 270.978C648.656 268.278 647.162 266.19 644.39 266.19C641.636 266.19 639.71 268.224 639.71 271.248C639.71 274.632 641.636 276.252 644.192 276.252C646.28 276.252 648.098 275.172 648.512 272.904H646.514C646.316 274.11 645.416 274.812 644.264 274.812C642.968 274.812 641.924 274.056 641.762 271.77H648.62C648.656 271.428 648.656 271.158 648.656 270.978ZM644.318 267.63C645.704 267.63 646.478 268.62 646.622 270.384H641.78C641.996 268.548 642.968 267.63 644.318 267.63ZM652.896 267.9H654.768V266.514H652.896V264.228H650.934V266.514H649.584V267.9H650.934V273.084C650.934 273.624 650.934 274.038 650.952 274.362C651.042 275.622 651.69 276.18 653.184 276.18C653.67 276.18 654.138 276.144 654.642 276.072V274.704C653.346 274.83 652.986 274.632 652.914 273.696C652.896 273.444 652.896 273.228 652.896 272.904V267.9ZM661.266 263.112C660.6 263.112 660.114 263.598 660.114 264.246C660.114 264.912 660.6 265.398 661.266 265.398C661.932 265.398 662.436 264.912 662.436 264.246C662.436 263.598 661.932 263.112 661.266 263.112ZM662.256 276V266.442H660.276V276H662.256ZM673.236 268.926C673.056 267.252 671.886 266.19 669.834 266.19C668.88 266.19 668.178 266.352 667.422 266.928L666.774 268.026V266.442H664.794V276H666.774V271.716C666.774 268.728 667.89 267.648 669.258 267.648C670.608 267.648 671.184 268.404 671.274 269.484C671.31 269.97 671.31 270.384 671.31 270.834V276H673.29V270.618C673.29 269.844 673.272 269.412 673.236 268.926ZM685.647 276L690.111 263.58H688.005L684.405 274.488L680.895 263.58H678.753L683.091 276H685.647ZM692.151 263.112C691.485 263.112 690.999 263.598 690.999 264.246C690.999 264.912 691.485 265.398 692.151 265.398C692.817 265.398 693.321 264.912 693.321 264.246C693.321 263.598 692.817 263.112 692.151 263.112ZM693.141 276V266.442H691.161V276H693.141ZM697.587 262.77H695.607V273.138C695.607 273.714 695.607 274.146 695.625 274.506C695.697 275.73 696.399 276.108 697.443 276.108C697.893 276.108 698.343 276.072 698.739 276.018V274.632C697.893 274.704 697.641 274.524 697.605 273.984C697.587 273.696 697.587 273.408 697.587 273.084V262.77ZM708.831 268.926C708.651 267.252 707.481 266.19 705.429 266.19C704.475 266.19 703.773 266.352 703.017 266.928L702.369 268.026V266.442H700.389V276H702.369V271.716C702.369 268.728 703.485 267.648 704.853 267.648C706.203 267.648 706.779 268.404 706.869 269.484C706.905 269.97 706.905 270.384 706.905 270.834V276H708.885V270.618C708.885 269.844 708.867 269.412 708.831 268.926ZM712.295 263.112C711.629 263.112 711.143 263.598 711.143 264.246C711.143 264.912 711.629 265.398 712.295 265.398C712.961 265.398 713.465 264.912 713.465 264.246C713.465 263.598 712.961 263.112 712.295 263.112ZM713.285 276V266.442H711.305V276H713.285ZM724.157 266.442H722.195V270.942C722.195 273.714 721.151 274.776 719.765 274.776C718.541 274.776 717.857 274.092 717.713 273.048C717.659 272.562 717.641 272.04 717.641 271.734V266.442H715.679V272.13C715.679 272.904 715.697 273.336 715.769 273.822C715.985 275.136 717.137 276.252 719.117 276.252C720.071 276.252 720.773 276.09 721.529 275.55L722.195 274.362V276H724.157V266.442ZM729.764 266.19C727.64 266.19 726.236 267.27 726.236 269.052C726.236 270.726 727.532 271.464 729.278 271.914C730.898 272.346 731.546 272.796 731.546 273.624C731.546 274.452 730.808 274.848 729.89 274.848C728.9 274.848 728.09 274.362 727.856 273.138H725.858C726.128 275.298 727.694 276.252 729.818 276.252C731.906 276.252 733.544 275.334 733.544 273.48C733.544 271.788 732.446 270.96 730.358 270.42C728.936 270.042 728.234 269.682 728.234 268.818C728.234 268.098 728.684 267.576 729.62 267.576C730.592 267.576 731.186 268.17 731.384 269.178H733.4C733.184 267.432 731.96 266.19 729.764 266.19ZM743.078 266.19C739.856 266.19 738.236 268.422 738.236 271.212C738.236 274.002 739.856 276.252 743.078 276.252C746.282 276.252 747.92 274.002 747.92 271.212C747.92 268.422 746.282 266.19 743.078 266.19ZM743.078 274.812C741.332 274.812 740.324 273.372 740.324 271.212C740.324 269.052 741.332 267.63 743.078 267.63C744.806 267.63 745.814 269.052 745.814 271.212C745.814 273.372 744.806 274.812 743.078 274.812ZM758.103 268.926C757.923 267.252 756.753 266.19 754.701 266.19C753.747 266.19 753.045 266.352 752.289 266.928L751.641 268.026V266.442H749.661V276H751.641V271.716C751.641 268.728 752.757 267.648 754.125 267.648C755.475 267.648 756.051 268.404 756.141 269.484C756.177 269.97 756.177 270.384 756.177 270.834V276H758.157V270.618C758.157 269.844 758.139 269.412 758.103 268.926ZM770.82 263.58H769.722C769.164 263.58 768.642 263.706 768.066 264.048L765.33 265.722V267.666L768.84 265.65V276H770.82V263.58ZM783.898 263.58H774.79V265.146H781.54L775.69 276H777.814L783.898 264.57V263.58ZM789.201 271.5V270.312H785.241V271.5H789.201ZM793.812 274.416L796.548 271.716C798.726 269.592 799.59 268.44 799.59 266.802C799.59 264.84 798.258 263.31 795.63 263.31C793.002 263.31 791.4 264.732 791.148 267.36L791.13 267.54H793.11L793.128 267.36C793.29 265.722 793.992 264.822 795.414 264.822C796.764 264.822 797.448 265.776 797.448 266.982C797.448 268.17 796.764 269.07 795.198 270.618L790.86 274.992V276H799.518V274.416H793.812ZM805.991 263.328C802.535 263.328 801.347 266.028 801.347 269.79C801.347 273.516 802.535 276.252 805.991 276.252C809.465 276.252 810.635 273.516 810.635 269.79C810.635 266.028 809.465 263.328 805.991 263.328ZM805.991 274.74C804.227 274.74 803.489 272.976 803.489 269.79C803.489 266.568 804.227 264.84 805.991 264.84C807.773 264.84 808.493 266.568 808.493 269.79C808.493 272.976 807.773 274.74 805.991 274.74ZM824.344 263.58H822.364V271.176C822.364 271.752 822.364 272.184 822.346 272.562C822.238 273.912 821.59 274.74 820.276 274.74C818.944 274.74 818.17 274.02 818.08 272.328L818.044 271.644H816.064L816.082 272.328C816.154 274.74 817.522 276.252 820.096 276.252C822.868 276.252 824.164 274.794 824.29 272.688C824.344 271.986 824.344 271.59 824.344 271.086V263.58ZM834.917 266.442H832.955V270.942C832.955 273.714 831.911 274.776 830.525 274.776C829.301 274.776 828.617 274.092 828.473 273.048C828.419 272.562 828.401 272.04 828.401 271.734V266.442H826.439V272.13C826.439 272.904 826.457 273.336 826.529 273.822C826.745 275.136 827.897 276.252 829.877 276.252C830.831 276.252 831.533 276.09 832.289 275.55L832.955 274.362V276H834.917V266.442ZM845.888 268.926C845.708 267.252 844.538 266.19 842.486 266.19C841.532 266.19 840.83 266.352 840.074 266.928L839.426 268.026V266.442H837.446V276H839.426V271.716C839.426 268.728 840.542 267.648 841.91 267.648C843.26 267.648 843.836 268.404 843.926 269.484C843.962 269.97 843.962 270.384 843.962 270.834V276H845.942V270.618C845.942 269.844 845.924 269.412 845.888 268.926ZM856.588 270.978C856.588 268.278 855.094 266.19 852.322 266.19C849.568 266.19 847.642 268.224 847.642 271.248C847.642 274.632 849.568 276.252 852.124 276.252C854.212 276.252 856.03 275.172 856.444 272.904H854.446C854.248 274.11 853.348 274.812 852.196 274.812C850.9 274.812 849.856 274.056 849.694 271.77H856.552C856.588 271.428 856.588 271.158 856.588 270.978ZM852.25 267.63C853.636 267.63 854.41 268.62 854.554 270.384H849.712C849.928 268.548 850.9 267.63 852.25 267.63ZM864.969 274.416L867.705 271.716C869.883 269.592 870.747 268.44 870.747 266.802C870.747 264.84 869.415 263.31 866.787 263.31C864.159 263.31 862.557 264.732 862.305 267.36L862.287 267.54H864.267L864.285 267.36C864.447 265.722 865.149 264.822 866.571 264.822C867.921 264.822 868.605 265.776 868.605 266.982C868.605 268.17 867.921 269.07 866.355 270.618L862.017 274.992V276H870.675V274.416H864.969ZM877.147 263.328C873.691 263.328 872.503 266.028 872.503 269.79C872.503 273.516 873.691 276.252 877.147 276.252C880.621 276.252 881.791 273.516 881.791 269.79C881.791 266.028 880.621 263.328 877.147 263.328ZM877.147 274.74C875.383 274.74 874.645 272.976 874.645 269.79C874.645 266.568 875.383 264.84 877.147 264.84C878.929 264.84 879.649 266.568 879.649 269.79C879.649 272.976 878.929 274.74 877.147 274.74ZM890.334 263.58H889.236C888.678 263.58 888.156 263.706 887.58 264.048L884.844 265.722V267.666L888.354 265.65V276H890.334V263.58ZM898.786 263.328C896.248 263.328 894.25 265.056 894.25 267.81C894.25 270.186 895.708 271.95 898.354 271.95C899.254 271.95 899.938 271.734 900.604 271.194L901.27 270.078C901.144 273.426 900.1 274.74 898.552 274.74C897.4 274.74 896.734 274.11 896.464 272.832L896.428 272.652H894.376L894.394 272.832C894.592 274.92 896.104 276.252 898.408 276.252C901.144 276.252 903.358 274.11 903.358 269.286C903.358 265.11 901.72 263.328 898.786 263.328ZM898.804 270.438C897.13 270.438 896.392 269.16 896.392 267.576C896.392 265.974 897.364 264.84 898.804 264.84C900.226 264.84 901.162 266.028 901.162 267.612C901.162 269.466 900.082 270.438 898.804 270.438ZM907.275 272.616L907.491 263.58H905.385L905.601 272.616H907.275ZM906.447 273.714C905.709 273.714 905.169 274.254 905.169 274.992C905.169 275.73 905.709 276.252 906.447 276.252C907.185 276.252 907.707 275.73 907.707 274.992C907.707 274.254 907.185 273.714 906.447 273.714Z" fill="#93B9FF"/>
<path d="M521.707 151.768H504.427V143.032H520.027V137.8H504.427V129.064H521.227V123.88H497.803V157H521.707V151.768ZM540.965 157H547.445C547.061 154.168 546.965 152.44 546.965 150.52V142.264C546.965 140.872 546.917 139.528 546.821 138.328C546.437 133.912 543.749 130.792 536.597 130.792C530.501 130.792 525.845 134.056 525.653 139.816L532.085 139.768C532.277 136.984 533.717 135.448 536.357 135.448C538.949 135.448 540.101 136.744 540.293 138.52C540.389 139.384 540.389 140.152 540.389 140.92V141.448H538.757C529.493 141.448 524.693 144.616 524.693 150.232C524.693 155.08 528.485 157.672 532.901 157.672C535.301 157.672 537.461 157.192 539.237 155.992L540.485 153.256L540.965 157ZM535.445 153.016C533.093 153.016 531.557 151.96 531.557 149.704C531.557 146.344 535.109 145.144 540.389 145.528V147.592C540.389 151.144 538.133 153.016 535.445 153.016ZM562.207 130.792C556.111 130.792 552.079 133.768 552.079 138.664C552.079 143.08 555.343 145.144 560.095 146.344C564.511 147.448 566.191 148.552 566.191 150.52C566.191 152.392 564.559 153.304 562.447 153.304C560.143 153.304 558.223 152.008 557.695 149.224H551.071C551.791 154.984 556.159 157.672 562.351 157.672C568.207 157.672 572.863 155.176 572.863 150.04C572.863 145.336 569.791 143.224 564.559 141.88C560.335 140.824 558.751 139.816 558.751 137.896C558.751 136.312 559.807 135.16 561.775 135.16C563.983 135.16 565.279 136.504 565.711 138.856H572.335C571.759 134.2 568.303 130.792 562.207 130.792ZM584.866 136.024H590.146V131.656H584.866V125.368H578.242V131.656H574.498V136.024H578.242V148.6C578.242 150.04 578.242 151.144 578.338 152.296C578.626 155.896 580.402 157.528 585.346 157.528C586.834 157.528 588.226 157.432 589.714 157.192V152.872C586.018 153.16 585.106 152.584 584.914 150.088C584.866 149.416 584.866 148.696 584.866 147.832V136.024ZM617.052 143.704C617.052 136.744 612.924 130.792 605.1 130.792C597.276 130.792 592.14 136.504 592.14 144.328C592.14 153.304 597.564 157.672 604.572 157.672C610.572 157.672 615.372 154.648 616.668 148.696H610.044C609.612 151.432 607.548 153.016 604.716 153.016C601.644 153.016 599.244 151.336 598.812 145.96H616.956C617.052 145.096 617.052 144.328 617.052 143.704ZM604.812 135.448C607.98 135.448 609.804 137.608 610.236 141.64H599.004C599.58 137.416 601.74 135.448 604.812 135.448ZM634.626 130.84C633.186 130.84 631.506 131.416 630.258 132.568L628.242 136.12V131.464H621.618V157H628.242V145.288C628.242 138.424 630.978 135.976 636.498 136.36V131.032C635.922 130.888 635.394 130.84 634.626 130.84ZM663.66 137.944C663.132 133.48 660.012 130.792 654.588 130.792C652.14 130.792 650.268 131.272 648.444 132.568L646.476 135.592V131.464H639.852V157H646.476V145.336C646.476 138.232 649.02 135.448 652.236 135.448C655.452 135.448 656.94 137.272 657.132 139.96C657.228 141.256 657.228 142.456 657.228 143.512V157H663.852V142.6C663.852 140.536 663.804 139.24 663.66 137.944ZM696.513 124.12C694.881 123.928 693.633 123.88 691.713 123.88H680.241V157H686.865V144.52H691.713C693.633 144.52 694.881 144.472 696.513 144.28C701.313 143.704 705.441 140.296 705.441 134.2C705.441 128.104 701.553 124.696 696.513 124.12ZM694.545 139.144C693.825 139.24 692.817 139.288 691.617 139.288H686.865V129.112H691.617C692.817 129.112 693.825 129.16 694.545 129.256C696.849 129.592 698.481 131.08 698.481 134.2C698.481 137.32 696.849 138.808 694.545 139.144ZM723.731 157H730.211C729.827 154.168 729.731 152.44 729.731 150.52V142.264C729.731 140.872 729.683 139.528 729.587 138.328C729.203 133.912 726.515 130.792 719.363 130.792C713.267 130.792 708.611 134.056 708.419 139.816L714.851 139.768C715.043 136.984 716.483 135.448 719.123 135.448C721.715 135.448 722.867 136.744 723.059 138.52C723.155 139.384 723.155 140.152 723.155 140.92V141.448H721.523C712.259 141.448 707.459 144.616 707.459 150.232C707.459 155.08 711.251 157.672 715.667 157.672C718.067 157.672 720.227 157.192 722.003 155.992L723.251 153.256L723.731 157ZM718.211 153.016C715.859 153.016 714.323 151.96 714.323 149.704C714.323 146.344 717.875 145.144 723.155 145.528V147.592C723.155 151.144 720.899 153.016 718.211 153.016ZM748.86 130.84C747.42 130.84 745.74 131.416 744.492 132.568L742.476 136.12V131.464H735.852V157H742.476V145.288C742.476 138.424 745.212 135.976 750.732 136.36V131.032C750.156 130.888 749.628 130.84 748.86 130.84ZM762.007 136.024H767.287V131.656H762.007V125.368H755.383V131.656H751.639V136.024H755.383V148.6C755.383 150.04 755.383 151.144 755.479 152.296C755.767 155.896 757.543 157.528 762.487 157.528C763.975 157.528 765.367 157.432 766.855 157.192V152.872C763.159 153.16 762.247 152.584 762.055 150.088C762.007 149.416 762.007 148.696 762.007 147.832V136.024ZM795.238 137.944C794.71 133.48 791.59 130.792 786.166 130.792C783.718 130.792 781.846 131.272 780.022 132.568L778.054 135.592V131.464H771.43V157H778.054V145.336C778.054 138.232 780.598 135.448 783.814 135.448C787.03 135.448 788.518 137.272 788.71 139.96C788.806 141.256 788.806 142.456 788.806 143.512V157H795.43V142.6C795.43 140.536 795.382 139.24 795.238 137.944ZM824.427 143.704C824.427 136.744 820.299 130.792 812.475 130.792C804.651 130.792 799.515 136.504 799.515 144.328C799.515 153.304 804.939 157.672 811.947 157.672C817.947 157.672 822.747 154.648 824.043 148.696H817.419C816.987 151.432 814.923 153.016 812.091 153.016C809.019 153.016 806.619 151.336 806.187 145.96H824.331C824.427 145.096 824.427 144.328 824.427 143.704ZM812.187 135.448C815.355 135.448 817.179 137.608 817.611 141.64H806.379C806.955 137.416 809.115 135.448 812.187 135.448ZM842.001 130.84C840.561 130.84 838.881 131.416 837.633 132.568L835.617 136.12V131.464H828.993V157H835.617V145.288C835.617 138.424 838.353 135.976 843.873 136.36V131.032C843.297 130.888 842.769 130.84 842.001 130.84ZM856.347 130.792C850.251 130.792 846.219 133.768 846.219 138.664C846.219 143.08 849.483 145.144 854.235 146.344C858.651 147.448 860.331 148.552 860.331 150.52C860.331 152.392 858.699 153.304 856.587 153.304C854.283 153.304 852.363 152.008 851.835 149.224H845.211C845.931 154.984 850.299 157.672 856.491 157.672C862.347 157.672 867.003 155.176 867.003 150.04C867.003 145.336 863.931 143.224 858.699 141.88C854.475 140.824 852.891 139.816 852.891 137.896C852.891 136.312 853.947 135.16 855.915 135.16C858.123 135.16 859.419 136.504 859.851 138.856H866.475C865.899 134.2 862.443 130.792 856.347 130.792ZM894.895 137.944C894.367 133.48 891.247 130.792 885.823 130.792C883.375 130.792 881.503 131.272 879.679 132.568L877.711 135.592V121.48H871.087V157H877.711V145.336C877.711 138.232 880.255 135.496 883.471 135.448C886.687 135.448 888.175 137.272 888.367 139.96C888.463 141.256 888.463 142.456 888.463 143.512V157H895.087V142.6C895.087 140.536 895.039 139.24 894.895 137.944ZM904.211 121.96C902.051 121.96 900.563 123.4 900.563 125.464C900.563 127.576 902.051 128.968 904.211 128.968C906.371 128.968 907.859 127.576 907.859 125.464C907.859 123.4 906.371 121.96 904.211 121.96ZM907.523 157V131.464H900.899V157H907.523ZM928.817 130.792C926.225 130.792 923.633 131.416 922.193 132.568L920.273 135.352V131.464H913.649V166.408H920.273V153.592L921.953 156.232C923.249 157.144 925.841 157.672 927.953 157.672C934.529 157.672 940.193 152.968 940.193 143.752C940.193 136.216 935.969 130.792 928.817 130.792ZM926.657 153.016C923.585 153.016 920.273 150.952 920.273 145.144V143.944C920.273 137.704 923.249 135.448 926.897 135.448C930.833 135.448 933.329 138.952 933.329 144.184C933.329 150.088 930.497 153.016 926.657 153.016ZM591.244 202.184L602.956 181.88H595.66L588.172 196.328L580.444 181.88H572.956L584.668 202.184V215H591.244V202.184ZM612.653 188.792C604.157 188.792 599.405 194.456 599.405 202.232C599.405 209.96 604.157 215.672 612.653 215.672C621.149 215.672 625.901 209.96 625.901 202.232C625.901 194.456 621.149 188.792 612.653 188.792ZM612.653 211.016C608.669 211.016 606.269 207.704 606.269 202.232C606.269 196.712 608.669 193.448 612.653 193.448C616.637 193.448 619.037 196.712 619.037 202.232C619.037 207.704 616.637 211.016 612.653 211.016ZM653.811 189.464H647.187V202.472C647.187 208.232 644.883 210.968 641.571 210.968C638.499 210.968 636.963 209.288 636.627 206.648C636.483 205.352 636.435 203.96 636.435 203.144V189.464H629.811V204.536C629.811 206.6 629.859 207.896 630.051 209.192C630.627 212.696 633.795 215.672 639.075 215.672C641.523 215.672 643.347 215.192 645.219 213.944L647.187 210.68V215H653.811V189.464ZM667.835 194.024H673.115V189.656H667.835V183.368H661.211V189.656H657.467V194.024H661.211V206.6C661.211 208.04 661.211 209.144 661.307 210.296C661.595 213.896 663.371 215.528 668.315 215.528C669.803 215.528 671.195 215.432 672.683 215.192V210.872C668.987 211.16 668.075 210.584 667.883 208.088C667.835 207.416 667.835 206.696 667.835 205.832V194.024ZM701.066 195.944C700.538 191.48 697.418 188.792 691.994 188.792C689.546 188.792 687.674 189.272 685.85 190.568L683.882 193.592V179.48H677.258V215H683.882V203.336C683.882 196.232 686.426 193.496 689.642 193.448C692.858 193.448 694.346 195.272 694.538 197.96C694.634 199.256 694.634 200.456 694.634 201.512V215H701.258V200.6C701.258 198.536 701.21 197.24 701.066 195.944ZM724.271 187.064H741.071V181.88H717.647V215H724.271V201.032H739.391V195.8H724.271V187.064ZM756.372 188.792C747.876 188.792 743.124 194.456 743.124 202.232C743.124 209.96 747.876 215.672 756.372 215.672C764.868 215.672 769.62 209.96 769.62 202.232C769.62 194.456 764.868 188.792 756.372 188.792ZM756.372 211.016C752.388 211.016 749.988 207.704 749.988 202.232C749.988 196.712 752.388 193.448 756.372 193.448C760.356 193.448 762.756 196.712 762.756 202.232C762.756 207.704 760.356 211.016 756.372 211.016ZM786.97 188.84C785.53 188.84 783.85 189.416 782.602 190.568L780.586 194.12V189.464H773.962V215H780.586V203.288C780.586 196.424 783.322 193.976 788.842 194.36V189.032C788.266 188.888 787.738 188.84 786.97 188.84ZM815.764 189.464H809.14V202.472C809.14 208.232 806.836 210.968 803.524 210.968C800.452 210.968 798.916 209.288 798.58 206.648C798.436 205.352 798.388 203.96 798.388 203.144V189.464H791.764V204.536C791.764 206.6 791.812 207.896 792.004 209.192C792.58 212.696 795.748 215.672 801.028 215.672C803.476 215.672 805.3 215.192 807.172 213.944L809.14 210.68V215H815.764V189.464ZM859.788 195.128C859.212 191.624 856.428 188.792 851.58 188.792C849.276 188.792 847.548 189.272 846.108 190.28L843.612 193.64C842.604 190.856 839.964 188.792 835.788 188.792C833.484 188.792 831.804 189.272 830.364 190.28L828.492 193.352V189.464H821.868V215H828.492V201.896C828.492 195.992 830.124 193.448 833.1 193.448C835.644 193.448 837.132 194.888 837.468 197.528C837.612 198.824 837.66 200.216 837.66 201.704V215H844.236V201.896C844.236 195.992 845.916 193.448 848.892 193.448C851.436 193.448 852.876 194.888 853.212 197.528C853.356 198.824 853.404 200.216 853.404 201.704V215H860.028V199.784C860.028 197.72 859.98 196.424 859.788 195.128Z" fill="white"/>
</g>
</svg>
