<svg width="98" height="98" viewBox="0 0 98 98" fill="none" xmlns="http://www.w3.org/2000/svg">
<circle cx="49" cy="49" r="49" fill="#5EBAAA"/>
<path fill-rule="evenodd" clip-rule="evenodd" d="M63.7658 54.6444C63.5557 53.8211 63.3726 53.0232 63.1953 52.2506C62.4734 49.0992 61.8243 46.2726 59.8664 44.9335C64.3221 44.8907 68.2709 42.1086 69.7351 37.9805C71.1994 33.8523 69.864 29.2668 66.3976 26.5203C62.9312 23.7738 58.0802 23.4576 54.2737 25.73C50.4673 28.0023 48.525 32.3741 49.4194 36.6561L43.4682 43.6324C42.631 43.2636 41.7003 43.15 40.7966 43.3065C39.7401 43.4677 39.2483 44.0734 39.0229 44.5524C38.5534 45.5541 38.8022 47.0394 39.3046 48.5132L27.678 62.1492L30.2439 64.7134L27.8787 67.1935L28.9081 68.1365L31.2311 65.7001L34.0741 68.5418L43.8273 59.0474C44.0292 59.843 44.2135 60.7077 44.3591 61.6322C44.8803 64.9402 47.6305 66.5602 50.2916 68.1273C52.6779 69.532 54.9317 70.8596 55.8167 73.319L55.9775 73.7669L56.4635 73.7795H56.5398C58.1789 73.7381 59.7966 73.4041 61.3137 72.7939C63.7059 71.844 66.9093 69.7657 68.5843 65.2557L68.7087 64.9183L68.4998 64.6236C68.4658 64.5787 65.0723 59.7704 63.7658 54.6444ZM68.9353 34.5674C68.9373 36.6365 68.2075 38.6423 66.8705 40.2427L54.0196 27.5899C56.7622 25.4127 60.5361 24.975 63.7207 26.4647C66.9053 27.9545 68.9339 31.1066 68.9353 34.5674ZM65.8986 41.2455L52.9948 28.5387C49.7413 32.084 49.881 37.5057 53.313 40.8853C56.7449 44.2649 62.2716 44.4231 65.8986 41.2455ZM49.8995 38.2519C51.0762 41.2673 53.6122 43.5767 56.7651 44.504L49.1776 51.8902C48.8445 51.2783 48.5273 50.6086 48.2039 49.9261L48.2038 49.926L48.2038 49.926L48.1482 49.8085L48.1362 49.7834C47.1923 47.7997 46.1733 45.6581 44.6643 44.39L49.8995 38.2519ZM52.2577 54.7342C52.523 54.6962 53.0465 53.6864 53.3141 52.5224L52.7178 50.398L49.9195 53.1222C50.5932 54.0906 51.341 54.7342 52.2577 54.7342ZM34.087 66.5821L29.5772 62.0755L39.8892 49.9858C40.4177 51.1704 41.0255 52.3193 41.7086 53.4251C41.7814 53.5529 42.623 55.0681 43.3942 57.5218L34.087 66.5821ZM56.9553 72.3829C58.289 72.2909 59.5992 71.9916 60.8371 71.4963C63.7987 70.3046 65.9162 68.1584 67.1347 65.1095C66.3447 63.9431 63.5909 59.653 62.3983 54.9772C62.1996 54.1974 62.0262 53.4445 61.8584 52.7158C61.8459 52.6611 61.8333 52.6067 61.8208 52.5523C60.8371 48.2599 60.1857 45.9317 57.6878 45.5518L53.8647 49.2731L54.7626 52.4752L54.7298 52.6364C54.5619 53.4515 53.887 56.1136 52.2565 56.1136C49.591 56.1136 48.2094 53.207 46.8731 50.3954L46.8711 50.3911L46.8667 50.3819C45.3588 47.2132 43.936 44.2235 41.0184 44.6698C40.5418 44.7435 40.3904 44.9554 40.3071 45.1304C39.638 46.5523 41.5525 50.5373 42.9153 52.7146L42.9282 52.7354C43.0104 52.8747 44.9331 56.2472 45.7512 61.4158C46.1712 64.0879 48.5224 65.473 51.013 66.9401L51.017 66.9425C53.3728 68.33 55.8038 69.7623 56.9553 72.3829Z" fill="white"/>
</svg>
