<svg width="375" height="604" viewBox="0 0 375 604" fill="none" xmlns="http://www.w3.org/2000/svg">
<rect x="-772" width="1920" height="604" fill="#2F5BEA"/>
<mask id="mask0" mask-type="alpha" maskUnits="userSpaceOnUse" x="0" y="0" width="375" height="604">
<rect width="375" height="604" fill="white"/>
</mask>
<g mask="url(#mask0)">
<path d="M99.3232 265.96H97.4992L95.2592 275.592L93.0352 266.12H90.6192L88.3312 275.544L86.2192 265.96H84.2832L87.1312 277H89.4672L91.7872 267.592L93.9952 277H96.3152L99.3232 265.96ZM107.393 272.536C107.393 270.136 106.065 268.28 103.601 268.28C101.153 268.28 99.4406 270.088 99.4406 272.776C99.4406 275.784 101.153 277.224 103.425 277.224C105.281 277.224 106.897 276.264 107.265 274.248H105.489C105.313 275.32 104.513 275.944 103.489 275.944C102.337 275.944 101.409 275.272 101.265 273.24H107.361C107.393 272.936 107.393 272.696 107.393 272.536ZM103.537 269.56C104.769 269.56 105.457 270.44 105.585 272.008H101.281C101.473 270.376 102.337 269.56 103.537 269.56ZM117.258 277H119.002C118.874 276.056 118.842 275.48 118.842 274.84V271.848C118.842 271.448 118.826 271 118.794 270.648C118.65 269.208 117.786 268.28 115.594 268.28C113.658 268.28 112.266 269.336 112.154 271.192H113.914C114.01 270.136 114.538 269.56 115.562 269.56C116.57 269.56 117.002 270.04 117.05 270.728C117.082 271.048 117.082 271.336 117.082 271.656V271.864H116.538C113.322 271.864 111.818 272.888 111.818 274.776C111.818 276.36 113.05 277.224 114.554 277.224C115.354 277.224 116.09 277.08 116.666 276.68L117.098 275.768L117.258 277ZM115.194 275.944C114.266 275.944 113.674 275.528 113.674 274.632C113.674 273.336 115.018 272.872 117.082 273.032V273.816C117.082 275.192 116.298 275.944 115.194 275.944ZM122.777 265.24H121.017V274.456C121.017 274.968 121.017 275.352 121.033 275.672C121.097 276.76 121.721 277.096 122.649 277.096C123.049 277.096 123.449 277.064 123.801 277.016V275.784C123.049 275.848 122.825 275.688 122.793 275.208C122.777 274.952 122.777 274.696 122.777 274.408V265.24ZM126.964 265.24H125.204V274.456C125.204 274.968 125.204 275.352 125.22 275.672C125.284 276.76 125.908 277.096 126.836 277.096C127.236 277.096 127.636 277.064 127.988 277.016V275.784C127.236 275.848 127.012 275.688 126.98 275.208C126.964 274.952 126.964 274.696 126.964 274.408V265.24ZM144.496 268.504H142.624L140.88 275.448L139.184 268.52H137.04L135.392 275.432L133.648 268.504H131.664L134.368 277H136.4L138.096 270.136L139.776 277H141.792L144.496 268.504ZM146.523 265.544C145.931 265.544 145.499 265.976 145.499 266.552C145.499 267.144 145.931 267.576 146.523 267.576C147.115 267.576 147.563 267.144 147.563 266.552C147.563 265.976 147.115 265.544 146.523 265.544ZM147.403 277V268.504H145.643V277H147.403ZM151.355 265.24H149.595V274.456C149.595 274.968 149.595 275.352 149.611 275.672C149.675 276.76 150.299 277.096 151.227 277.096C151.627 277.096 152.027 277.064 152.379 277.016V275.784C151.627 275.848 151.403 275.688 151.371 275.208C151.355 274.952 151.355 274.696 151.355 274.408V265.24ZM155.542 265.24H153.782V274.456C153.782 274.968 153.782 275.352 153.798 275.672C153.862 276.76 154.486 277.096 155.414 277.096C155.814 277.096 156.214 277.064 156.566 277.016V275.784C155.814 275.848 155.59 275.688 155.558 275.208C155.542 274.952 155.542 274.696 155.542 274.408V265.24ZM173.235 270.36C173.043 269.192 172.147 268.28 170.579 268.28C169.827 268.28 169.235 268.424 168.771 268.776L167.987 269.896C167.667 268.952 166.819 268.28 165.475 268.28C164.707 268.28 164.115 268.424 163.667 268.776L163.091 269.768V268.504H161.331V277H163.091V272.728C163.091 270.424 163.763 269.576 164.803 269.576C165.715 269.576 166.259 270.056 166.387 270.968C166.435 271.4 166.451 271.864 166.451 272.504V277H168.195V272.728C168.195 270.424 168.883 269.576 169.907 269.576C170.819 269.576 171.379 270.056 171.491 270.968C171.539 271.4 171.555 271.864 171.555 272.504V277H173.315V271.864C173.315 271.176 173.299 270.792 173.235 270.36ZM182.768 272.536C182.768 270.136 181.44 268.28 178.976 268.28C176.528 268.28 174.816 270.088 174.816 272.776C174.816 275.784 176.528 277.224 178.8 277.224C180.656 277.224 182.272 276.264 182.64 274.248H180.864C180.688 275.32 179.888 275.944 178.864 275.944C177.712 275.944 176.784 275.272 176.64 273.24H182.736C182.768 272.936 182.768 272.696 182.768 272.536ZM178.912 269.56C180.144 269.56 180.832 270.44 180.96 272.008H176.656C176.848 270.376 177.712 269.56 178.912 269.56ZM191.752 272.536C191.752 270.136 190.424 268.28 187.96 268.28C185.512 268.28 183.8 270.088 183.8 272.776C183.8 275.784 185.512 277.224 187.784 277.224C189.64 277.224 191.256 276.264 191.624 274.248H189.848C189.672 275.32 188.872 275.944 187.848 275.944C186.696 275.944 185.768 275.272 185.624 273.24H191.72C191.752 272.936 191.752 272.696 191.752 272.536ZM187.896 269.56C189.128 269.56 189.816 270.44 189.944 272.008H185.64C185.832 270.376 186.696 269.56 187.896 269.56ZM195.52 269.8H197.184V268.568H195.52V266.536H193.776V268.568H192.576V269.8H193.776V274.408C193.776 274.888 193.776 275.256 193.792 275.544C193.872 276.664 194.448 277.16 195.776 277.16C196.208 277.16 196.624 277.128 197.072 277.064V275.848C195.92 275.96 195.6 275.784 195.536 274.952C195.52 274.728 195.52 274.536 195.52 274.248V269.8ZM202.961 265.544C202.369 265.544 201.937 265.976 201.937 266.552C201.937 267.144 202.369 267.576 202.961 267.576C203.553 267.576 204.001 267.144 204.001 266.552C204.001 265.976 203.553 265.544 202.961 265.544ZM203.841 277V268.504H202.081V277H203.841ZM213.6 270.712C213.44 269.224 212.4 268.28 210.576 268.28C209.728 268.28 209.104 268.424 208.432 268.936L207.856 269.912V268.504H206.096V277H207.856V273.192C207.856 270.536 208.848 269.576 210.064 269.576C211.264 269.576 211.776 270.248 211.856 271.208C211.888 271.64 211.888 272.008 211.888 272.408V277H213.648V272.216C213.648 271.528 213.632 271.144 213.6 270.712ZM224.632 277L228.6 265.96H226.728L223.528 275.656L220.408 265.96H218.504L222.36 277H224.632ZM230.414 265.544C229.822 265.544 229.39 265.976 229.39 266.552C229.39 267.144 229.822 267.576 230.414 267.576C231.006 267.576 231.454 267.144 231.454 266.552C231.454 265.976 231.006 265.544 230.414 265.544ZM231.294 277V268.504H229.534V277H231.294ZM235.245 265.24H233.485V274.456C233.485 274.968 233.485 275.352 233.501 275.672C233.565 276.76 234.189 277.096 235.117 277.096C235.517 277.096 235.917 277.064 236.269 277.016V275.784C235.517 275.848 235.293 275.688 235.261 275.208C235.245 274.952 235.245 274.696 235.245 274.408V265.24ZM245.241 270.712C245.081 269.224 244.041 268.28 242.217 268.28C241.369 268.28 240.745 268.424 240.073 268.936L239.497 269.912V268.504H237.737V277H239.497V273.192C239.497 270.536 240.489 269.576 241.705 269.576C242.905 269.576 243.417 270.248 243.497 271.208C243.529 271.64 243.529 272.008 243.529 272.408V277H245.289V272.216C245.289 271.528 245.273 271.144 245.241 270.712ZM248.32 265.544C247.728 265.544 247.296 265.976 247.296 266.552C247.296 267.144 247.728 267.576 248.32 267.576C248.912 267.576 249.36 267.144 249.36 266.552C249.36 265.976 248.912 265.544 248.32 265.544ZM249.2 277V268.504H247.44V277H249.2ZM258.864 268.504H257.12V272.504C257.12 274.968 256.192 275.912 254.96 275.912C253.872 275.912 253.264 275.304 253.136 274.376C253.088 273.944 253.072 273.48 253.072 273.208V268.504H251.328V273.56C251.328 274.248 251.344 274.632 251.408 275.064C251.6 276.232 252.624 277.224 254.384 277.224C255.232 277.224 255.856 277.08 256.528 276.6L257.12 275.544V277H258.864V268.504ZM263.848 268.28C261.96 268.28 260.712 269.24 260.712 270.824C260.712 272.312 261.864 272.968 263.416 273.368C264.856 273.752 265.432 274.152 265.432 274.888C265.432 275.624 264.776 275.976 263.96 275.976C263.08 275.976 262.36 275.544 262.152 274.456H260.376C260.616 276.376 262.008 277.224 263.896 277.224C265.752 277.224 267.208 276.408 267.208 274.76C267.208 273.256 266.232 272.52 264.376 272.04C263.112 271.704 262.488 271.384 262.488 270.616C262.488 269.976 262.888 269.512 263.72 269.512C264.584 269.512 265.112 270.04 265.288 270.936H267.08C266.888 269.384 265.8 268.28 263.848 268.28ZM275.682 268.28C272.818 268.28 271.378 270.264 271.378 272.744C271.378 275.224 272.818 277.224 275.682 277.224C278.53 277.224 279.986 275.224 279.986 272.744C279.986 270.264 278.53 268.28 275.682 268.28ZM275.682 275.944C274.13 275.944 273.234 274.664 273.234 272.744C273.234 270.824 274.13 269.56 275.682 269.56C277.218 269.56 278.114 270.824 278.114 272.744C278.114 274.664 277.218 275.944 275.682 275.944ZM289.038 270.712C288.878 269.224 287.838 268.28 286.014 268.28C285.166 268.28 284.542 268.424 283.87 268.936L283.294 269.912V268.504H281.534V277H283.294V273.192C283.294 270.536 284.286 269.576 285.502 269.576C286.702 269.576 287.214 270.248 287.294 271.208C287.326 271.64 287.326 272.008 287.326 272.408V277H289.086V272.216C289.086 271.528 289.07 271.144 289.038 270.712ZM129.17 289.96H128.194C127.698 289.96 127.234 290.072 126.722 290.376L124.29 291.864V293.592L127.41 291.8V301H129.17V289.96ZM140.795 289.96H132.699V291.352H138.699L133.499 301H135.387L140.795 290.84V289.96ZM145.509 297V295.944H141.989V297H145.509ZM149.607 299.592L152.039 297.192C153.975 295.304 154.743 294.28 154.743 292.824C154.743 291.08 153.559 289.72 151.223 289.72C148.887 289.72 147.463 290.984 147.239 293.32L147.223 293.48H148.983L148.999 293.32C149.143 291.864 149.767 291.064 151.031 291.064C152.231 291.064 152.839 291.912 152.839 292.984C152.839 294.04 152.231 294.84 150.839 296.216L146.983 300.104V301H154.679V299.592H149.607ZM160.433 289.736C157.361 289.736 156.305 292.136 156.305 295.48C156.305 298.792 157.361 301.224 160.433 301.224C163.521 301.224 164.561 298.792 164.561 295.48C164.561 292.136 163.521 289.736 160.433 289.736ZM160.433 299.88C158.865 299.88 158.209 298.312 158.209 295.48C158.209 292.616 158.865 291.08 160.433 291.08C162.017 291.08 162.657 292.616 162.657 295.48C162.657 298.312 162.017 299.88 160.433 299.88ZM176.747 289.96H174.987V296.712C174.987 297.224 174.987 297.608 174.971 297.944C174.875 299.144 174.299 299.88 173.131 299.88C171.947 299.88 171.259 299.24 171.179 297.736L171.147 297.128H169.387L169.403 297.736C169.467 299.88 170.683 301.224 172.971 301.224C175.435 301.224 176.587 299.928 176.699 298.056C176.747 297.432 176.747 297.08 176.747 296.632V289.96ZM186.145 292.504H184.401V296.504C184.401 298.968 183.473 299.912 182.241 299.912C181.153 299.912 180.545 299.304 180.417 298.376C180.369 297.944 180.353 297.48 180.353 297.208V292.504H178.609V297.56C178.609 298.248 178.625 298.632 178.689 299.064C178.881 300.232 179.905 301.224 181.665 301.224C182.513 301.224 183.137 301.08 183.809 300.6L184.401 299.544V301H186.145V292.504ZM195.897 294.712C195.737 293.224 194.697 292.28 192.873 292.28C192.025 292.28 191.401 292.424 190.729 292.936L190.153 293.912V292.504H188.393V301H190.153V297.192C190.153 294.536 191.145 293.576 192.361 293.576C193.561 293.576 194.073 294.248 194.153 295.208C194.185 295.64 194.185 296.008 194.185 296.408V301H195.945V296.216C195.945 295.528 195.929 295.144 195.897 294.712ZM205.408 296.536C205.408 294.136 204.08 292.28 201.616 292.28C199.168 292.28 197.456 294.088 197.456 296.776C197.456 299.784 199.168 301.224 201.44 301.224C203.296 301.224 204.912 300.264 205.28 298.248H203.504C203.328 299.32 202.528 299.944 201.504 299.944C200.352 299.944 199.424 299.272 199.28 297.24H205.376C205.408 296.936 205.408 296.696 205.408 296.536ZM201.552 293.56C202.784 293.56 203.472 294.44 203.6 296.008H199.296C199.488 294.376 200.352 293.56 201.552 293.56ZM212.857 299.592L215.289 297.192C217.225 295.304 217.993 294.28 217.993 292.824C217.993 291.08 216.809 289.72 214.473 289.72C212.137 289.72 210.713 290.984 210.489 293.32L210.473 293.48H212.233L212.249 293.32C212.393 291.864 213.017 291.064 214.281 291.064C215.481 291.064 216.089 291.912 216.089 292.984C216.089 294.04 215.481 294.84 214.089 296.216L210.233 300.104V301H217.929V299.592H212.857ZM223.683 289.736C220.611 289.736 219.555 292.136 219.555 295.48C219.555 298.792 220.611 301.224 223.683 301.224C226.771 301.224 227.811 298.792 227.811 295.48C227.811 292.136 226.771 289.736 223.683 289.736ZM223.683 299.88C222.115 299.88 221.459 298.312 221.459 295.48C221.459 292.616 222.115 291.08 223.683 291.08C225.267 291.08 225.907 292.616 225.907 295.48C225.907 298.312 225.267 299.88 223.683 299.88ZM235.404 289.96H234.428C233.932 289.96 233.468 290.072 232.956 290.376L230.524 291.864V293.592L233.644 291.8V301H235.404V289.96ZM242.918 289.736C240.662 289.736 238.886 291.272 238.886 293.72C238.886 295.832 240.182 297.4 242.534 297.4C243.334 297.4 243.942 297.208 244.534 296.728L245.126 295.736C245.014 298.712 244.086 299.88 242.71 299.88C241.686 299.88 241.094 299.32 240.854 298.184L240.822 298.024H238.998L239.014 298.184C239.19 300.04 240.534 301.224 242.582 301.224C245.014 301.224 246.982 299.32 246.982 295.032C246.982 291.32 245.526 289.736 242.918 289.736ZM242.934 296.056C241.446 296.056 240.79 294.92 240.79 293.512C240.79 292.088 241.654 291.08 242.934 291.08C244.198 291.08 245.03 292.136 245.03 293.544C245.03 295.192 244.07 296.056 242.934 296.056ZM250.463 297.992L250.655 289.96H248.783L248.975 297.992H250.463ZM249.727 298.968C249.071 298.968 248.591 299.448 248.591 300.104C248.591 300.76 249.071 301.224 249.727 301.224C250.383 301.224 250.847 300.76 250.847 300.104C250.847 299.448 250.383 298.968 249.727 298.968Z" fill="#93B9FF"/>
<path d="M128.621 116.768H111.341V108.032H126.941V102.8H111.341V94.064H128.141V88.88H104.717V122H128.621V116.768ZM147.879 122H154.359C153.975 119.168 153.879 117.44 153.879 115.52V107.264C153.879 105.872 153.831 104.528 153.735 103.328C153.351 98.912 150.663 95.792 143.511 95.792C137.415 95.792 132.759 99.056 132.567 104.816L138.999 104.768C139.191 101.984 140.631 100.448 143.271 100.448C145.863 100.448 147.015 101.744 147.207 103.52C147.303 104.384 147.303 105.152 147.303 105.92V106.448H145.671C136.407 106.448 131.607 109.616 131.607 115.232C131.607 120.08 135.399 122.672 139.815 122.672C142.215 122.672 144.375 122.192 146.151 120.992L147.399 118.256L147.879 122ZM142.359 118.016C140.007 118.016 138.471 116.96 138.471 114.704C138.471 111.344 142.023 110.144 147.303 110.528V112.592C147.303 116.144 145.047 118.016 142.359 118.016ZM169.121 95.792C163.025 95.792 158.993 98.768 158.993 103.664C158.993 108.08 162.257 110.144 167.009 111.344C171.425 112.448 173.105 113.552 173.105 115.52C173.105 117.392 171.473 118.304 169.361 118.304C167.057 118.304 165.137 117.008 164.609 114.224H157.985C158.705 119.984 163.073 122.672 169.265 122.672C175.121 122.672 179.777 120.176 179.777 115.04C179.777 110.336 176.705 108.224 171.473 106.88C167.249 105.824 165.665 104.816 165.665 102.896C165.665 101.312 166.721 100.16 168.689 100.16C170.897 100.16 172.193 101.504 172.625 103.856H179.249C178.673 99.2 175.217 95.792 169.121 95.792ZM191.78 101.024H197.06V96.656H191.78V90.368H185.156V96.656H181.412V101.024H185.156V113.6C185.156 115.04 185.156 116.144 185.252 117.296C185.54 120.896 187.316 122.528 192.26 122.528C193.748 122.528 195.14 122.432 196.628 122.192V117.872C192.932 118.16 192.02 117.584 191.828 115.088C191.78 114.416 191.78 113.696 191.78 112.832V101.024ZM223.966 108.704C223.966 101.744 219.838 95.792 212.014 95.792C204.19 95.792 199.054 101.504 199.054 109.328C199.054 118.304 204.478 122.672 211.486 122.672C217.486 122.672 222.286 119.648 223.582 113.696H216.958C216.526 116.432 214.462 118.016 211.63 118.016C208.558 118.016 206.158 116.336 205.726 110.96H223.87C223.966 110.096 223.966 109.328 223.966 108.704ZM211.726 100.448C214.894 100.448 216.718 102.608 217.15 106.64H205.918C206.494 102.416 208.654 100.448 211.726 100.448ZM241.54 95.84C240.1 95.84 238.42 96.416 237.172 97.568L235.156 101.12V96.464H228.532V122H235.156V110.288C235.156 103.424 237.892 100.976 243.412 101.36V96.032C242.836 95.888 242.308 95.84 241.54 95.84ZM270.574 102.944C270.046 98.48 266.926 95.792 261.502 95.792C259.054 95.792 257.182 96.272 255.358 97.568L253.39 100.592V96.464H246.766V122H253.39V110.336C253.39 103.232 255.934 100.448 259.15 100.448C262.366 100.448 263.854 102.272 264.046 104.96C264.142 106.256 264.142 107.456 264.142 108.512V122H270.766V107.6C270.766 105.536 270.718 104.24 270.574 102.944ZM74.794 147.12C73.162 146.928 71.914 146.88 69.994 146.88H58.522V180H65.146V167.52H69.994C71.914 167.52 73.162 167.472 74.794 167.28C79.594 166.704 83.722 163.296 83.722 157.2C83.722 151.104 79.834 147.696 74.794 147.12ZM72.826 162.144C72.106 162.24 71.098 162.288 69.898 162.288H65.146V152.112H69.898C71.098 152.112 72.106 152.16 72.826 152.256C75.13 152.592 76.762 154.08 76.762 157.2C76.762 160.32 75.13 161.808 72.826 162.144ZM102.012 180H108.492C108.108 177.168 108.012 175.44 108.012 173.52V165.264C108.012 163.872 107.964 162.528 107.868 161.328C107.484 156.912 104.796 153.792 97.6443 153.792C91.5483 153.792 86.8923 157.056 86.7003 162.816L93.1323 162.768C93.3243 159.984 94.7643 158.448 97.4043 158.448C99.9963 158.448 101.148 159.744 101.34 161.52C101.436 162.384 101.436 163.152 101.436 163.92V164.448H99.8043C90.5403 164.448 85.7402 167.616 85.7402 173.232C85.7402 178.08 89.5323 180.672 93.9483 180.672C96.3483 180.672 98.5083 180.192 100.284 178.992L101.532 176.256L102.012 180ZM96.4922 176.016C94.1403 176.016 92.6043 174.96 92.6043 172.704C92.6043 169.344 96.1562 168.144 101.436 168.528V170.592C101.436 174.144 99.1803 176.016 96.4922 176.016ZM127.141 153.84C125.701 153.84 124.021 154.416 122.773 155.568L120.757 159.12V154.464H114.133V180H120.757V168.288C120.757 161.424 123.493 158.976 129.013 159.36V154.032C128.437 153.888 127.909 153.84 127.141 153.84ZM140.288 159.024H145.568V154.656H140.288V148.368H133.664V154.656H129.92V159.024H133.664V171.6C133.664 173.04 133.664 174.144 133.76 175.296C134.048 178.896 135.824 180.528 140.768 180.528C142.256 180.528 143.648 180.432 145.136 180.192V175.872C141.44 176.16 140.528 175.584 140.336 173.088C140.288 172.416 140.288 171.696 140.288 170.832V159.024ZM173.52 160.944C172.992 156.48 169.872 153.792 164.448 153.792C162 153.792 160.128 154.272 158.304 155.568L156.336 158.592V154.464H149.712V180H156.336V168.336C156.336 161.232 158.88 158.448 162.096 158.448C165.312 158.448 166.8 160.272 166.992 162.96C167.088 164.256 167.088 165.456 167.088 166.512V180H173.712V165.6C173.712 163.536 173.664 162.24 173.52 160.944ZM202.708 166.704C202.708 159.744 198.58 153.792 190.756 153.792C182.932 153.792 177.796 159.504 177.796 167.328C177.796 176.304 183.22 180.672 190.228 180.672C196.228 180.672 201.028 177.648 202.324 171.696H195.7C195.268 174.432 193.204 176.016 190.372 176.016C187.3 176.016 184.9 174.336 184.468 168.96H202.612C202.708 168.096 202.708 167.328 202.708 166.704ZM190.468 158.448C193.636 158.448 195.46 160.608 195.892 164.64H184.66C185.236 160.416 187.396 158.448 190.468 158.448ZM220.282 153.84C218.842 153.84 217.162 154.416 215.914 155.568L213.898 159.12V154.464H207.274V180H213.898V168.288C213.898 161.424 216.634 158.976 222.154 159.36V154.032C221.578 153.888 221.05 153.84 220.282 153.84ZM234.628 153.792C228.532 153.792 224.5 156.768 224.5 161.664C224.5 166.08 227.764 168.144 232.516 169.344C236.932 170.448 238.612 171.552 238.612 173.52C238.612 175.392 236.98 176.304 234.868 176.304C232.564 176.304 230.644 175.008 230.116 172.224H223.492C224.212 177.984 228.58 180.672 234.772 180.672C240.628 180.672 245.284 178.176 245.284 173.04C245.284 168.336 242.212 166.224 236.98 164.88C232.756 163.824 231.172 162.816 231.172 160.896C231.172 159.312 232.228 158.16 234.196 158.16C236.404 158.16 237.7 159.504 238.132 161.856H244.756C244.18 157.2 240.724 153.792 234.628 153.792ZM273.176 160.944C272.648 156.48 269.528 153.792 264.104 153.792C261.656 153.792 259.784 154.272 257.96 155.568L255.992 158.592V144.48H249.368V180H255.992V168.336C255.992 161.232 258.536 158.496 261.752 158.448C264.968 158.448 266.456 160.272 266.648 162.96C266.744 164.256 266.744 165.456 266.744 166.512V180H273.368V165.6C273.368 163.536 273.32 162.24 273.176 160.944ZM282.492 144.96C280.332 144.96 278.844 146.4 278.844 148.464C278.844 150.576 280.332 151.968 282.492 151.968C284.652 151.968 286.14 150.576 286.14 148.464C286.14 146.4 284.652 144.96 282.492 144.96ZM285.804 180V154.464H279.18V180H285.804ZM307.098 153.792C304.506 153.792 301.914 154.416 300.474 155.568L298.554 158.352V154.464H291.93V189.408H298.554V176.592L300.234 179.232C301.53 180.144 304.122 180.672 306.234 180.672C312.81 180.672 318.474 175.968 318.474 166.752C318.474 159.216 314.25 153.792 307.098 153.792ZM304.938 176.016C301.866 176.016 298.554 173.952 298.554 168.144V166.944C298.554 160.704 301.53 158.448 305.178 158.448C309.114 158.448 311.61 161.952 311.61 167.184C311.61 173.088 308.778 176.016 304.938 176.016ZM60.7435 225.184L72.4555 204.88H65.1595L57.6715 219.328L49.9435 204.88H42.4555L54.1675 225.184V238H60.7435V225.184ZM82.1534 211.792C73.6574 211.792 68.9054 217.456 68.9054 225.232C68.9054 232.96 73.6574 238.672 82.1534 238.672C90.6494 238.672 95.4014 232.96 95.4014 225.232C95.4014 217.456 90.6494 211.792 82.1534 211.792ZM82.1534 234.016C78.1694 234.016 75.7694 230.704 75.7694 225.232C75.7694 219.712 78.1694 216.448 82.1534 216.448C86.1374 216.448 88.5374 219.712 88.5374 225.232C88.5374 230.704 86.1374 234.016 82.1534 234.016ZM123.311 212.464H116.687V225.472C116.687 231.232 114.383 233.968 111.071 233.968C107.999 233.968 106.463 232.288 106.127 229.648C105.983 228.352 105.935 226.96 105.935 226.144V212.464H99.3108V227.536C99.3108 229.6 99.3588 230.896 99.5508 232.192C100.127 235.696 103.295 238.672 108.575 238.672C111.023 238.672 112.847 238.192 114.719 236.944L116.687 233.68V238H123.311V212.464ZM137.335 217.024H142.615V212.656H137.335V206.368H130.711V212.656H126.967V217.024H130.711V229.6C130.711 231.04 130.711 232.144 130.807 233.296C131.095 236.896 132.871 238.528 137.815 238.528C139.303 238.528 140.695 238.432 142.183 238.192V233.872C138.487 234.16 137.575 233.584 137.383 231.088C137.335 230.416 137.335 229.696 137.335 228.832V217.024ZM170.566 218.944C170.038 214.48 166.918 211.792 161.494 211.792C159.046 211.792 157.174 212.272 155.35 213.568L153.382 216.592V202.48H146.758V238H153.382V226.336C153.382 219.232 155.926 216.496 159.142 216.448C162.358 216.448 163.846 218.272 164.038 220.96C164.134 222.256 164.134 223.456 164.134 224.512V238H170.758V223.6C170.758 221.536 170.71 220.24 170.566 218.944ZM193.771 210.064H210.571V204.88H187.147V238H193.771V224.032H208.891V218.8H193.771V210.064ZM225.872 211.792C217.376 211.792 212.624 217.456 212.624 225.232C212.624 232.96 217.376 238.672 225.872 238.672C234.368 238.672 239.12 232.96 239.12 225.232C239.12 217.456 234.368 211.792 225.872 211.792ZM225.872 234.016C221.888 234.016 219.488 230.704 219.488 225.232C219.488 219.712 221.888 216.448 225.872 216.448C229.856 216.448 232.256 219.712 232.256 225.232C232.256 230.704 229.856 234.016 225.872 234.016ZM256.47 211.84C255.03 211.84 253.35 212.416 252.102 213.568L250.086 217.12V212.464H243.462V238H250.086V226.288C250.086 219.424 252.822 216.976 258.342 217.36V212.032C257.766 211.888 257.238 211.84 256.47 211.84ZM285.264 212.464H278.64V225.472C278.64 231.232 276.336 233.968 273.024 233.968C269.952 233.968 268.416 232.288 268.08 229.648C267.936 228.352 267.888 226.96 267.888 226.144V212.464H261.264V227.536C261.264 229.6 261.312 230.896 261.504 232.192C262.08 235.696 265.248 238.672 270.528 238.672C272.976 238.672 274.8 238.192 276.672 236.944L278.64 233.68V238H285.264V212.464ZM329.288 218.128C328.712 214.624 325.928 211.792 321.08 211.792C318.776 211.792 317.048 212.272 315.608 213.28L313.112 216.64C312.104 213.856 309.464 211.792 305.288 211.792C302.984 211.792 301.304 212.272 299.864 213.28L297.992 216.352V212.464H291.368V238H297.992V224.896C297.992 218.992 299.624 216.448 302.6 216.448C305.144 216.448 306.632 217.888 306.968 220.528C307.112 221.824 307.16 223.216 307.16 224.704V238H313.736V224.896C313.736 218.992 315.416 216.448 318.392 216.448C320.936 216.448 322.376 217.888 322.712 220.528C322.856 221.824 322.904 223.216 322.904 224.704V238H329.528V222.784C329.528 220.72 329.48 219.424 329.288 218.128Z" fill="white"/>
<path d="M33 165V203L0 183.978L33 165V165Z" fill="#C13038"/>
<path d="M329 289V262L352 275.508L329 289V289Z" fill="#93B9FF"/>
<path d="M48 101V71L75 86.0173L48 101V101Z" fill="#5EBAAA"/>
<path d="M346.979 119L329 86H365L346.979 119V119Z" fill="#FCB62E"/>
</g>
<path d="M45.0845 359.623H124.022C135.044 359.623 144.167 368.22 144.858 379.257L149.107 447.676H20L24.2522 379.264C24.936 368.224 34.06 359.622 45.0845 359.623Z" fill="#C13038"/>
<path d="M78.2296 313.087C81.0698 308.87 89.0283 308.677 94.5102 308.87C99.992 309.063 99.2501 304.266 99.2501 304.266C111.379 307.717 105.923 318.73 105.923 318.73H88.515L82.5198 323.974V328.222C81.5527 326.705 79.8899 325.789 78.1059 325.791C77.7279 325.792 77.3511 325.834 76.9818 325.916H76.9556C76.1131 326.108 75.3305 326.508 74.6774 327.08C68.4687 313.413 78.2296 313.087 78.2296 313.087Z" fill="#223F78"/>
<path d="M76.7885 326.011H76.8148C77.1852 325.929 77.5632 325.887 77.9423 325.886C79.729 325.883 81.3948 326.794 82.366 328.303V324.066L88.3794 318.834H105.856V341.465C105.856 343.159 105.088 344.76 103.771 345.814C102.453 346.867 100.73 347.258 99.0908 346.875L92.5587 345.154V359.639L84.418 367.716L76.6758 359.647L76.7547 336.365C74.3297 335.835 72.6028 333.67 72.6109 331.172C72.6191 328.674 74.3601 326.522 76.7885 326.007V326.011Z" fill="#F6D0BA"/>
<path d="M98.2689 341.495C99.904 341.497 101.473 340.852 102.628 339.703L101.822 338.905C99.859 340.85 96.6826 340.85 94.7199 338.905L93.9135 339.703C95.0678 340.852 96.6351 341.497 98.2689 341.495Z" fill="#2C2D3C"/>
<path d="M92.6604 359.623L101.014 366.204L84.5533 367.716L92.6604 359.623V359.623Z" fill="white"/>
<path d="M76.8499 359.623L68.0921 366.202L84.5532 367.716L76.8499 359.623V359.623Z" fill="white"/>
<path fill-rule="evenodd" clip-rule="evenodd" d="M69.7061 401.567L60.0249 407.211L50.3401 401.567V387.14H69.7061V401.567ZM60.0249 405.909L68.5845 400.913V388.265H51.4616V400.913L60.0249 405.909Z" fill="#2C2D3C"/>
<path d="M137.336 395.058L136.232 394.843L126.031 447.482L127.135 447.697L137.336 395.058Z" fill="#2C2D3C"/>
<rect width="45.9931" height="0.965179" transform="matrix(0.190436 -0.9817 0.981488 0.191526 253.28 447.542)" fill="#2C2D3C"/>
<path d="M295.675 352.76H272.62C264.767 352.76 258.156 358.652 257.233 366.473L254.167 392.277H273.982L287.167 426.741H349.312L343.306 366.745C342.515 358.793 335.841 352.739 327.874 352.747H309.444L296.956 362.349L295.675 352.76Z" fill="#223F78"/>
<path d="M309.702 328.629C309.421 326.526 307.781 324.866 305.687 324.563C305.259 324.503 304.824 324.503 304.396 324.563C303.503 324.682 302.662 325.056 301.975 325.641C298.399 323.722 296.834 319.691 296.834 319.691C291.259 328.61 281.118 329.953 281.118 329.953L282.603 341.122C282.795 342.557 283.628 343.827 284.868 344.57C286.107 345.313 287.616 345.449 288.968 344.939L294.352 342.734L295.688 352.77L296.979 362.371L309.467 352.77V352.77L306.914 333.621C308.851 332.77 309.99 330.732 309.702 328.629Z" fill="#F6D0BA"/>
<path d="M351.452 315.596C348.379 313.347 344.351 312.657 340.585 313.172C338.196 313.495 335.888 314.276 333.484 314.612C331.079 314.949 328.51 314.8 326.518 313.437C325.095 312.466 324.124 310.974 323.052 309.617C321.157 307.215 318.698 305.062 315.706 304.438C312.478 303.771 309.018 305.085 306.646 307.377C305.677 308.326 304.122 310.171 303.386 311.993C300.666 310.914 297.716 310.55 294.816 310.935C286.905 312 276.196 316.891 281.118 329.954C281.118 329.954 291.253 328.61 296.814 319.682C296.814 319.682 298.38 323.712 301.956 325.632C302.643 325.047 303.483 324.673 304.377 324.554C304.805 324.494 305.239 324.494 305.668 324.554C307.776 324.844 309.431 326.511 309.712 328.626C309.993 330.742 308.83 332.785 306.872 333.618L307.737 340.093C307.737 340.093 314.228 334.266 312.901 324.369C312.365 320.336 310.58 317.186 308.114 314.936C308.54 314.854 308.976 314.844 309.405 314.907C311.629 315.315 313.601 316.584 315.315 318.073C320.96 323.003 325.076 329.284 331.812 332.964C339.155 336.988 353.114 336.477 355.561 326.587C356.604 322.456 354.851 318.079 351.452 315.596Z" fill="#FCB62E"/>
<path d="M287.157 426.741L286.002 447.631H355.251L349.312 426.741H287.157V426.741Z" fill="#5EBAAA"/>
<path fill-rule="evenodd" clip-rule="evenodd" d="M284.346 336.962C284.649 339.184 286.538 340.842 288.774 340.847C288.973 340.849 289.171 340.837 289.368 340.811C290.543 340.655 291.608 340.037 292.328 339.092C293.047 338.148 293.363 336.955 293.206 335.777L293.141 335.295L284.284 336.483L284.346 336.962ZM289.242 339.853C287.506 340.086 285.866 338.998 285.401 337.305L292.279 336.383C292.274 338.139 290.977 339.621 289.242 339.853Z" fill="#2C2D3C"/>
<path d="M248.499 439.93L234.33 442.406V447.631H263.469L264.818 442.406V442.406L273.972 392.277H254.157L248.499 439.93V439.93Z" fill="#F6D0BA"/>
<path d="M339.203 392.277H320.628L319.411 440.257L307.117 442.406V447.631H336.26L335.953 439.93L339.203 392.277V392.277Z" fill="#F6D0BA"/>
<path d="M187 344V393" stroke="#93B9FF" stroke-width="2"/>
<path d="M191 389L187 393L183 389" stroke="#93B9FF" stroke-width="2"/>
</svg>
